<?xml version="1.0" standalone="no"?>
<!DOCTYPE svg PUBLIC "-//W3C//DTD SVG 20010904//EN"
 "http://www.w3.org/TR/2001/REC-SVG-20010904/DTD/svg10.dtd">
<svg version="1.0" xmlns="http://www.w3.org/2000/svg"
 width="1068.000000pt" height="1068.000000pt" viewBox="0 0 1068.000000 1068.000000"
 preserveAspectRatio="xMidYMid meet">
<metadata>
Created by potrace 1.14, written by Peter Selinger 2001-2017
</metadata>
<g transform="translate(0.000000,1068.000000) scale(0.100000,-0.100000)"
fill="#000000" stroke="none">
<path d="M5240 10661 c-36 -10 -105 -38 -155 -63 -173 -87 -240 -123 -247
-133 -4 -5 -8 -6 -8 -1 0 5 -7 3 -15 -4 -9 -7 -39 -24 -68 -37 -29 -14 -59
-30 -67 -38 -8 -7 -18 -14 -23 -14 -4 -1 -34 -14 -67 -31 -33 -17 -63 -30 -66
-29 -4 0 -10 -3 -13 -8 -3 -5 -19 -16 -36 -25 -98 -49 -252 -131 -262 -140 -7
-6 -13 -8 -13 -4 0 3 -23 -8 -50 -24 -28 -17 -55 -30 -60 -30 -6 0 -10 -4 -10
-10 0 -5 -3 -9 -7 -8 -8 2 -64 -23 -73 -32 -3 -3 -30 -18 -60 -33 -229 -117
-276 -142 -282 -152 -5 -6 -8 -6 -8 0 0 7 -3 7 -8 0 -4 -5 -43 -28 -87 -49
-44 -22 -92 -48 -107 -59 -16 -10 -28 -15 -28 -10 0 4 -4 4 -8 -2 -4 -5 -36
-25 -72 -43 -85 -44 -312 -162 -425 -222 -245 -129 -299 -158 -415 -218 -69
-35 -147 -77 -175 -92 -27 -15 -106 -56 -175 -91 -69 -35 -127 -66 -130 -69
-3 -3 -40 -23 -83 -45 -121 -61 -203 -139 -254 -240 -37 -73 -43 -89 -53 -144
-7 -35 -10 -695 -10 -1856 0 -1968 -3 -1847 58 -1973 15 -31 39 -70 54 -87 16
-16 28 -33 28 -36 0 -10 115 -97 146 -111 16 -7 31 -15 34 -18 3 -3 41 -24 85
-46 152 -79 436 -227 600 -314 50 -26 140 -73 200 -105 61 -32 142 -75 180
-95 39 -21 113 -59 165 -86 52 -27 97 -51 100 -54 3 -3 79 -43 170 -89 91 -46
168 -88 171 -93 3 -6 10 -9 15 -9 10 1 96 -40 104 -50 9 -10 72 -39 86 -39 7
0 14 -4 16 -8 2 -5 56 -37 122 -70 65 -34 125 -67 132 -73 8 -6 14 -8 14 -4 0
4 6 3 13 -3 6 -5 57 -33 112 -62 223 -118 291 -154 315 -166 14 -8 30 -14 37
-14 6 0 13 -4 15 -8 2 -5 41 -28 88 -52 123 -64 205 -107 285 -149 39 -20 142
-75 230 -120 88 -46 168 -89 178 -95 17 -10 18 -25 12 -211 -8 -290 -14 -494
-20 -710 -3 -104 -7 -255 -10 -335 -3 -80 -7 -230 -10 -335 -3 -104 -8 -266
-10 -360 -3 -93 -7 -258 -9 -365 -4 -191 -4 -195 21 -239 46 -83 101 -115 198
-115 115 -1 161 33 280 208 33 49 67 96 76 106 9 9 25 31 35 49 10 17 22 31
26 31 4 0 8 7 8 15 0 9 7 18 15 21 8 4 15 13 15 20 0 8 7 17 15 20 8 4 15 11
15 18 0 6 9 23 19 36 24 31 91 121 111 150 44 64 106 145 112 148 5 2 8 9 8
16 0 7 9 21 20 31 11 10 20 22 20 28 0 5 12 23 26 41 14 17 50 65 80 106 29
41 58 80 64 87 5 7 10 16 10 22 0 5 4 11 8 13 8 3 44 51 110 148 13 19 26 37
30 40 4 3 12 13 17 22 13 22 237 337 250 351 13 15 126 173 140 196 6 9 12 18
15 21 3 3 23 29 44 59 21 30 43 59 47 65 5 6 36 49 69 96 32 47 63 90 68 96 5
6 31 42 58 80 26 38 62 87 79 110 16 23 37 51 45 63 14 21 35 49 60 78 5 7 10
15 10 18 0 3 21 34 48 69 26 35 54 74 62 86 8 12 65 90 125 174 61 84 157 219
215 300 58 81 116 162 130 180 14 19 32 44 40 56 13 19 41 58 108 149 9 13 24
34 32 47 15 23 208 291 223 309 4 6 30 42 57 80 27 39 53 75 57 80 5 6 24 33
43 60 19 28 38 55 42 60 4 6 18 24 31 40 13 17 39 53 57 80 19 28 36 52 39 55
3 3 19 25 36 50 16 25 34 50 39 55 18 16 66 94 66 105 0 5 4 10 8 10 7 0 33
64 38 93 1 4 2 8 4 10 12 15 15 298 17 1912 2 1852 2 1871 -18 1930 -11 33
-21 66 -21 73 -1 6 -4 12 -7 12 -3 0 -12 14 -20 32 -39 87 -125 161 -299 256
-83 46 -153 82 -156 80 -2 -2 -12 4 -22 13 -11 8 -53 33 -94 54 -41 21 -88 46
-105 56 -16 10 -55 30 -85 45 -30 16 -57 31 -60 34 -3 3 -32 19 -65 35 -102
52 -299 157 -311 166 -6 5 -46 27 -90 50 -74 38 -131 69 -279 149 -33 18 -89
49 -125 68 -113 59 -233 125 -285 154 -27 16 -70 38 -95 50 -25 12 -47 24 -50
27 -3 3 -30 18 -60 33 -30 15 -82 42 -115 61 -33 18 -89 49 -125 67 -36 19
-68 39 -72 45 -4 5 -8 6 -8 1 0 -4 -12 0 -27 10 -40 26 -185 104 -205 111 -10
3 -18 9 -18 14 0 5 -6 9 -12 9 -14 0 -26 6 -133 65 -38 22 -101 56 -140 77
-38 20 -86 46 -105 56 -19 11 -64 34 -100 53 -36 18 -71 39 -78 46 -7 7 -21
13 -31 13 -9 0 -21 4 -26 9 -44 42 -277 61 -385 32z"/>
</g>
</svg>
